<?xml version="1.0" encoding="UTF-8" standalone="no"?>
<svg xmlns:rdf="http://www.w3.org/1999/02/22-rdf-syntax-ns#" xmlns="http://www.w3.org/2000/svg" xml:space="preserve" height="127.03" viewBox="0 0 193.66875 127.03125" width="193.67" version="1.1" xmlns:cc="http://creativecommons.org/ns#" xmlns:dc="http://purl.org/dc/elements/1.1/"><g transform="matrix(1.25 0 0 -1.25 -158.94 737.01)"><g transform="translate(.73909 .73909)"><path d="m215.04 588.01h-32.963v-16.366h2.082v-19.97h-2.082v-5.159c-1.326-0.447-22.167-7.486-22.479-7.59h-32.44v-32.471h5.451c0.304-1.531 3.66-18.469 3.66-18.469h135.11s3.354 16.938 3.658 18.469h5.453v32.471h-32.445c-0.31 0.105-23.224 7.843-24.556 8.294v33.574l-8.053 7.217h-0.399zm-8.488-16.366v-18.705c-1.109 0.375-2.727 0.921-2.727 0.921s-1.617-0.546-2.727-0.921v18.705h5.454" fill="#231f20"/><path d="m69.953 1.3047v17.848h2.6035v27.572h-2.6035v6.0801l-29.188 9.8574h-39.461v37.979h6.582l4.5742 23.084h166.75l4.5723-23.084h6.582v-37.979h-39.463l-31.789-10.736v-42.32l-9.2598-8.3008h-39.898zm21.166 17.848h9.4297v26.506l-4.7148-1.5938-4.7148 1.5918v-26.504z" transform="matrix(.8 0 0 -.8 127.16 588.01)" fill="#005f2f"/><path d="m73.555 4.9043v10.648h2.6016v34.771h-2.6016v10.65h34.922l7.0352-6.3125v-43.449l-7.0352-6.3086h-0.50195-34.42zm13.967 10.648h15.221c0.34375 0.30875 1.1088 0.99422 1.4062 1.2617v32.285c-0.505 0.445-1.392 1.2234-1.3945 1.2246h-15.232v-34.771zm22.248 49.355-3.1348 5.8984v21.617l3.1308 5.9668h10.801l3.1289-5.9668v-21.617l-3.1348-5.8984h-0.78321-10.008zm-106.21 0.0039v9.0215h1.3496v15.496h-1.3496v8.9609h14.67l3.0508-4.6973v-24.018l-3.0449-4.7637h-0.71484-13.961zm23.246 0s-2.4812 21.804-2.7188 23.9h-1.6055v9.5781h8.9473v-6.9688h1.8574v6.9688h8.9238v-9.5762h-1.5527c-0.23375-2.1012-2.668-23.902-2.668-23.902h-1.166-10.018zm17.232 0v8.2578h1.4863v15.645h-1.4863v9.5762h8.5977v-12.518h1.1562c0.0037 0.0075 0.006 0.01203 0.0098 0.01953v12.498h8.5957v-9.5762h-1.4844v-6.0469s-0.59141-1.1083-0.91016-1.707c0.31875-0.5975 0.91016-1.709 0.91016-1.709v-9.9336l-3.5371-4.5059h-0.63281-12.705zm18.584 0v11.377h5.6836v12.525h-1.4863v9.5762h10.08v-9.5762h-1.4844v-12.525h5.6621v-11.377h-1.3047-17.15zm20.447 0v9.541h1.4844v14.361h-1.4844v9.5762h8.5957v-7.9492c0.4225 1.3162 2.2715 7.084 2.2715 7.084s1.8509-5.7658 2.2734-7.082v7.9473h8.5957v-9.5762h-1.4863v-14.361h1.4863v-9.541h-1.3066-6.7246s-1.7141 5.3947-2.8379 8.9297c-1.1238-3.535-2.8379-8.9297-2.8379-8.9297h-8.0293zm42.434 0v9.541h1.4824v17.971l3.1309 5.9668h10.801l3.1309-5.9668v-17.971h1.4863v-9.541h-1.3066-7.793v23.902h-1.8359v-23.902h-9.0957zm21.379 0v11.377h5.6797v12.525h-1.4824v9.5078h10.08v-9.5078h-1.4844v-12.525h5.6621v-11.377h-1.3047-17.15zm20.119 0v9.541h1.4844v14.361h-1.4844v9.5762h9.8281v-9.5762h-1.2324v-2.9414h3.9297v2.9414h-1.2363v9.5762h9.8301v-9.5762h-1.4844v-14.361h1.4844v-9.541h-1.3047-8.5254v9.541h1.2363v2.0156h-3.9297v-2.0156h1.2324v-9.541h-9.8281zm-114.37 8.2578h1.1562c0.0037 0.0062 0.006 0.01008 0.0098 0.01758v3.9004l-0.0098 0.02148h-1.1562v-3.9395zm-40.445 0.76367h1.8125v15.496h-1.8125v-15.496zm101.56 0.51953h2.8418v14.361h-2.8418v-14.361zm-101.5 29.664 3.1738 16.008h160.83l3.1719-16.008h-1.5898-165.59z" transform="matrix(.8 0 0 -.8 127.16 588.01)"/><path d="m74.857 6.209v8.0391h2.6055v37.383h-2.6055v8.0371h33.117l6.2324-5.5879v-42.285l-6.2324-5.5859h-33.117zm11.357 8.0391h17.027c0.345 0.3075 1.8147 1.6299 2.2109 1.9824v33.459c-0.40125 0.3525-1.867 1.6414-2.207 1.9414h-17.031v-37.383zm24.342 51.967-2.6172 4.918v20.969l2.6172 4.9844h9.2207l2.6152-4.9844v-20.969l-2.6152-4.918h-9.2207zm-105.7 0.002v6.4141h1.3516v18.104h-1.3516v6.3516h12.656l2.457-3.7793v-23.25l-2.457-3.8398h-12.656zm23.107 0-2.7207 23.9h-1.4629v6.9688h6.3359v-6.9668l4.4668-0.002v6.9688h6.3145v-6.9668h-1.4141l-2.668-23.902h-8.8516zm17.371 0v5.6484h1.4863v18.254h-1.4863v6.9668h5.9863v-7.0039-5.5117h3.2461l0.53125 0.99805v11.518h5.9863v-6.9668h-1.4863v-7.0234l-1.0801-2.0352 1.0801-2.0332v-9.1582l-2.8633-3.6523h-11.4zm18.584 0v8.7676h3.6973v-1.834h1.9863v16.969h-1.4863v6.9668h7.4707v-6.9668h-1.4844v-16.969h1.9863v1.834h3.6758v-8.7676h-15.846zm20.447 0v6.9336h1.4844v16.969h-1.4844v6.9668h5.9863v-14.984l3.5762 11.152 3.5781-11.152v14.984h5.9844v-6.9668h-1.4824v-16.969h1.4824v-6.9336h-5.7695l-3.793 11.934-3.793-11.934h-5.7695zm42.432 0v6.9336h1.4844v18.951l2.6152 4.9844h9.2227l2.6152-4.9844v-18.951h1.4844v-6.9336h-6.4883v22.941l-0.50782 0.96094h-3.4062l-0.53125-0.96094v-22.941h-6.4883zm21.381 0v8.7676h3.6973v-1.834h1.9844v16.969h-1.4824v6.9004h7.4668v-6.9004h-1.4844v-16.969h1.9883v1.834h3.6758v-8.7676h-15.846zm20.119 0v6.9336h1.4844v16.969h-1.4844v6.9668h7.2207v-6.9668h-1.2344v-5.5488h6.5371v5.5488h-1.2363v6.9668h7.2227v-6.9668h-1.4863v-16.969h1.4863v-6.9336h-7.2227v6.9336h1.2363v4.623h-6.5371v-4.623h1.2344v-6.9336h-7.2207zm-116.98 5.6484h3.2461l0.53125 0.99805v4.5527l-0.53125 0.99609h-3.2461v-6.5469zm-18.971 0.22266 1.6582 12.045h-2.9746l1.3164-12.045zm-21.473 0.54297h4.0215c0.08125 0.13 0.33234 0.53664 0.40234 0.65039v16.822c-0.035 0.05875-0.31578 0.50211-0.39453 0.63086h-4.0293v-18.104zm102.09 0.51953h4.4043l0.51367 0.95898v15.049l-0.51367 0.96094h-4.4043l-0.53125-0.96094v-15.049l0.53125-0.95898zm-99.139 32.271 2.6543 13.398h158.69l2.6543-13.398h-164z" transform="matrix(.8 0 0 -.8 127.16 588.01)" fill="#fff"/></g></g></svg>
