<svg width="185" height="228" viewBox="0 0 185 228" xmlns="http://www.w3.org/2000/svg">
  <g id="g31" transform="matrix(1.3333333,0,0,-1.3333333,0,816)">
    <g id="g2739">
      <path d="m 108.91754,528.85608 14.439,13.219 v 37.621 l -17.286,18.302 h -92.121 v -29.676 h 12.932 v -82.796 h -12.932 v -29.879 h 92.121 l 19.115,18.302 v 41.486 z m -19.297,-43.676 h -30.594 v 28.936 h 30.594 z m 0,54.809 h -30.594 v 28.936 h 30.594 z" style="fill:#4e3629" id="path243" />
      <path d="m 126.83044,529.31748 8.281,7.582 v 47.47 l -23.974,25.384 H 1.89244 v -51.981 h 13.113 v -61.696 h -13.113 v -52.185 h 108.898 l 26.151,25.038 v 52.047 z m 1.37,-56.655 -20.92,-20.03 h -96.345 v 35.305 h 12.811 v 77.974 h -12.811 v 35.101 h 96.434 l 19.001,-20.118 v -40.147 l -12.86,-11.773 14.69,-12.119 z m -66.159,69.888 h 24.716 v 23.812 h -24.716 z m 19.441,4.823 h -14.167 v 14.167 h 14.167 z m -19.441,-59.632 h 24.716 v 23.812 h -24.716 z m 19.441,4.823 h -14.167 v 13.865 h 14.167 z" style="fill:#c00404" id="path247" />
    </g>
  </g>
</svg>
